<svg xmlns="http://www.w3.org/2000/svg" width="256" height="256" viewBox="0 0 256 256">
  <rect width="256" height="256" fill="none"/>
  <path d="M128,32A96,96,0,1,0,224,128,96.1,96.1,0,0,0,128,32Zm0,176a80,80,0,1,1,80-80A80.1,80.1,0,0,1,128,208Zm0-144a64,64,0,1,0,64,64A64.1,64.1,0,0,0,128,64Zm0,112a48,48,0,1,1,48-48A48.1,48.1,0,0,1,128,176Z" fill="#646cff"/>
  <path d="M128,32A96,96,0,1,0,224,128,96.1,96.1,0,0,0,128,32Zm0,176a80,80,0,1,1,80-80A80.1,80.1,0,0,1,128,208Zm0-144a64,64,0,1,0,64,64A64.1,64.1,0,0,0,128,64Zm0,112a48,48,0,1,1,48-48A48.1,48.1,0,0,1,128,176Z" fill="url(#gradient)"/>
  <defs>
    <linearGradient id="gradient" x1="0" y1="0" x2="1" y2="1">
      <stop offset="0%" stop-color="#646cff"/>
      <stop offset="100%" stop-color="#ff5e62"/>
    </linearGradient>
  </defs>
</svg>